<mxfile host="app.diagrams.net" modified="2024-08-03T10:01:06.206Z" agent="Mozilla/5.0 (Macintosh; Intel Mac OS X 10_15_7) AppleWebKit/537.36 (KHTML, like Gecko) Chrome/127.0.0.0 Safari/537.36" version="24.7.2" etag="BmdOg2QywBx34buSwk1P" type="github">
  <diagram name="第 1 页" id="vjhGBdV7xH1weP6HpxPZ">
    <mxGraphModel>
      <root>
        <mxCell id="0" />
        <mxCell id="1" parent="0" />
      </root>
    </mxGraphModel>
  </diagram>
</mxfile>
